{"title":"The Jungle Book (2016) 720p HD-TC x264 Dual Audio [Hindi-English","uid":14466828,"size":1909595714,"categoryP":"video","categoryS":"movies","magnet":"?xt=urn:btih:3bceacf6228ff082b91ed6db0c67f40982b520bf&amp;dn=The+Jungle+Book+%282016%29+720p+HD-TC+x264+Dual+Audio+%5BHindi-English&amp;tr=udp%3A%2F%2Ftracker.leechers-paradise.org%3A6969&amp;tr=udp%3A%2F%2Fzer0day.ch%3A1337&amp;tr=udp%3A%2F%2Fopen.demonii.com%3A1337&amp;tr=udp%3A%2F%2Ftracker.coppersurfer.tk%3A6969&amp;tr=udp%3A%2F%2Fexodus.desync.com%3A6969","seeders":18,"leechers":6,"uploader":"tykoon123","files":3,"time":1461868983,"description":"http://lookpic.com/O/i2/811/nxvgA3dW.png\r\n\r\nFormat version : Version 4 / Version 2\r\n\r\nFile size : 1.76 GiB\r\n\r\nDuration : 1h 45mn\r\n\r\nOverall bit rate : 2 390 Kbps\r\n\r\nMovie name : The Jungle Book (2016) 720p HD-TC x264 [Dual Audio] [Hindi 2.0 - English 2.0] [IamBidyuT]\r\n\r\nEncoded date : UTC 2016-04-27 16:16:48\r\n\r\nWriting application : mkvmerge v9.1.0 ('Little Earthquakes') 64bit\r\n\r\nWriting library : libebml v1.3.3 + libmatroska v1.4.4\r\n\r\n\r\nFormat : AVC\r\n\r\nFormat/Info : Advanced Video Codec\r\n\r\nFormat profile :   \r\n\r\nFormat settings, CABAC : Yes\r\n\r\nFormat settings, ReFrames : 4 frames\r\n\r\nCodec ID : V_MPEG4/ISO/AVC\r\n\r\nDuration : 1h 45mn\r\n\r\nBit rate : 2 075 Kbps\r\n\r\nWidth : 1 264 pixels\r\n\r\nHeight : 688 pixels\r\n\r\nDisplay aspect ratio : 1.85:1\r\n\r\nFrame rate mode : Constant\r\n\r\nFrame rate : 23.976 (24000/1001) fps\r\n\r\nColor space : YUV\r\n\r\nChroma subsampling : 4:2:0\r\n\r\nBit depth : 8 bits\r\n\r\nScan type : Progressive\r\n\r\nBits/(Pixel*Frame) : 0.100\r\n\r\nStream size : 1.53 GiB (87%)\r\n\r\nDefault : Yes\r\n\r\nForced : No\r\n\r\n\r\n\r\n: Audio #1 :\r\n\r\nID : 2\r\n\r\nFormat : MPEG Audio\r\n\r\nFormat version : Version 1\r\n\r\nFormat profile : Layer 3\r\n\r\nMode : Joint stereo\r\n\r\nMode extension : MS Stereo\r\n\r\nCodec ID : A_MPEG/L3\r\n\r\nCodec ID/Hint : MP3\r\n\r\nDuration : 1h 45mn\r\n\r\nBit rate mode : Constant\r\n\r\nBit rate : 192 Kbps\r\n\r\nChannel(s) : 2 channels\r\n\r\nSampling rate : 44.1 KHz\r\n\r\nFrame rate : 38.276 fps (1152 spf)\r\n\r\nCompression mode : Lossy\r\n\r\nDelay relative to video : 25ms\r\n\r\nStream size : 144 MiB (8%)\r\n\r\nTitle : English MP3 192 Kbps [IamBidyuT]\r\n\r\nLanguage : English\r\n\r\nDefault : No\r\n\r\nForced : No\r\n\r\n\r\n\r\n: Audio #2 :\r\n\r\nID : 3\r\n\r\nFormat : AAC\r\n\r\nFormat/Info : Advanced Audio Codec\r\n\r\nFormat profile : HE-AAC / LC\r\n\r\nCodec ID : A_AAC\r\n\r\nDuration : 1h 45mn\r\n\r\nBit rate : 119 Kbps\r\n\r\nChannel(s) : 2 channels\r\n\r\nChannel positions : Front: L R\r\n\r\nSampling rate : 44.1 KHz / 22.05 KHz\r\n\r\nFrame rate : 21.533 fps (1024 spf)\r\n\r\nCompression mode : Lossy\r\n\r\nDelay relative to video : 211ms\r\n\r\nStream size : 90.0 MiB (5%)\r\n\r\nTitle : Hindi AAC 119 Kbps [IamBidyuT]\r\n\r\nLanguage : Hindi\r\n\r\nDefault : Yes\r\n\r\nForced : Yes\r\n\r\n\r\nScreens: \nhttp://lookpic.com/O/i2/1142/q5WSvjgq.jpeg \nhttp://lookpic.com/O/i2/1434/Hd6WczEn.jpeg \nhttp://lookpic.com/O/i2/151/AnT0QTDA.jpeg \nhttp://lookpic.com/O/i2/162/tiHhqel5.jpeg \nhttp://lookpic.com/O/i2/1199/eheh9xjh.jpeg","torrent":{"xt":"urn:btih:3bceacf6228ff082b91ed6db0c67f40982b520bf","amp;dn":"The+Jungle+Book+%282016%29+720p+HD-TC+x264+Dual+Audio+%5BHindi-English","amp;tr":["udp%3A%2F%2Ftracker.leechers-paradise.org%3A6969","udp%3A%2F%2Fzer0day.ch%3A1337","udp%3A%2F%2Fopen.demonii.com%3A1337","udp%3A%2F%2Ftracker.coppersurfer.tk%3A6969","udp%3A%2F%2Fexodus.desync.com%3A6969"],"infoHash":"3bceacf6228ff082b91ed6db0c67f40982b520bf","infoHashBuffer":{"type":"Buffer","data":[59,206,172,246,34,143,240,130,185,30,214,219,12,103,244,9,130,181,32,191]},"announce":[],"urlList":[]}}